<svg width="360" height="272" viewBox="0 0 360 272" fill="none" xmlns="http://www.w3.org/2000/svg">
<line x1="80.5" x2="80.5" y2="64" stroke="#FFC710"/>
<path d="M32 0C38.329 0 44.5159 1.87677 49.7782 5.39297C55.0406 8.90918 59.1421 13.9069 61.5641 19.7541C63.9861 25.6014 64.6198 32.0355 63.3851 38.2429C62.1504 44.4503 59.1027 50.1521 54.6274 54.6274C50.1521 59.1027 44.4503 62.1504 38.2429 63.3851C32.0355 64.6198 25.6014 63.9861 19.7541 61.5641C13.9069 59.1421 8.90918 55.0406 5.39297 49.7782C1.87677 44.5159 0 38.329 0 32C0 23.5131 3.37142 15.3737 9.37258 9.37258C15.3737 3.37142 23.5131 0 32 0V0Z" fill="#1F0045"/>
<path d="M25 32H35M25 27H35H25Z" stroke="white" stroke-width="2" stroke-linecap="round"/>
<path d="M47.9863 13.3848C47.9863 13.359 47.9802 13.3417 47.9777 13.3159C47.9751 13.2901 47.97 13.2645 47.9648 13.2387C47.9597 13.2129 47.9528 13.1872 47.9468 13.1614C47.9423 13.1381 47.9362 13.1151 47.9287 13.0925C47.9219 13.0667 47.9124 13.0411 47.9047 13.0153C47.897 12.9895 47.8884 12.9722 47.879 12.9464C47.8695 12.9206 47.8592 12.9031 47.8489 12.8859C47.8386 12.8687 47.8275 12.8345 47.8154 12.8087C47.8022 12.7895 47.7904 12.7696 47.7802 12.7486C47.765 12.7266 47.7512 12.7036 47.739 12.6798C47.7253 12.6626 47.709 12.6369 47.6935 12.6197C47.6775 12.6011 47.6634 12.5807 47.6515 12.5592C47.6223 12.5248 47.5923 12.4903 47.5605 12.4559C47.5605 12.4559 47.5545 12.4561 47.551 12.4475C47.5476 12.4389 47.5433 12.4473 47.5399 12.4387C47.5081 12.4043 47.4746 12.3786 47.4403 12.3442C47.4223 12.3356 47.4043 12.3184 47.3854 12.3098L47.321 12.2582C47.3004 12.241 47.2781 12.2325 47.2566 12.2153C47.2352 12.1981 47.2154 12.1895 47.1948 12.1809C47.1708 12.173 47.1482 12.1614 47.1279 12.1465L47.06 12.1208L46.9965 12.0948L46.9201 12.0692C46.9009 12.0594 46.8799 12.0536 46.8583 12.052L46.7725 12.0259C46.749 12.0272 46.7254 12.0245 46.7029 12.0175C46.6781 12.0175 46.6523 12.0087 46.6257 12.0087C46.5881 12.0017 46.5498 11.999 46.5115 12.0003H38.9172C38.5156 12.0019 38.1311 12.1627 37.8476 12.4475C37.5635 12.7381 37.4044 13.1288 37.4044 13.5355C37.4044 13.9423 37.5635 14.3325 37.8476 14.6231C38.1311 14.908 38.5156 15.0688 38.9172 15.0704H42.8358L38.2176 19.7659C35.9333 17.761 33.0077 16.6423 29.971 16.6123C26.9342 16.5823 23.9872 17.6431 21.664 19.6025C20.1126 20.907 18.8864 22.5561 18.0827 24.4186C17.2759 26.2876 16.9115 28.3181 17.0181 30.3516C17.1248 32.3851 17.6995 34.3662 18.6973 36.1402C19.6881 37.9071 21.0802 39.4156 22.761 40.5435C24.4308 41.6689 26.3429 42.382 28.3407 42.6246V46.555H23.8048C23.4033 46.5563 23.0186 46.7171 22.7353 47.0022C22.4512 47.2928 22.2921 47.6831 22.2921 48.0898C22.2921 48.4966 22.4512 48.8872 22.7353 49.1778C23.0186 49.4629 23.4033 49.6238 23.8048 49.625H28.3407V53.4606C28.3401 53.8687 28.4992 54.2607 28.7836 54.5528C28.9235 54.6944 29.09 54.8069 29.2735 54.8837C29.457 54.9604 29.6539 55 29.8528 55C30.0516 55 30.2485 54.9604 30.432 54.8837C30.6156 54.8069 30.7821 54.6944 30.9219 54.5528C31.2068 54.261 31.3659 53.8687 31.3649 53.4606V49.625H35.9016C36.3029 49.6237 36.6872 49.4628 36.9703 49.1778C37.2543 48.8872 37.4134 48.4966 37.4134 48.0898C37.4134 47.6831 37.2543 47.2928 36.9703 47.0022C36.6872 46.7172 36.3029 46.5564 35.9016 46.555H31.3649V42.6246C33.5938 42.3569 35.7121 41.5024 37.5042 40.1479C39.3093 38.7912 40.7296 36.986 41.6246 34.9107C42.5245 32.828 42.8726 30.548 42.6351 28.2911C42.3977 26.0342 41.5827 23.8769 40.2691 22.028L44.9758 17.2464V21.2108C44.9753 21.6189 45.1343 22.011 45.4188 22.303C45.5586 22.4447 45.7251 22.5572 45.9086 22.6339C46.0922 22.7107 46.289 22.7502 46.4879 22.7502C46.6868 22.7502 46.8837 22.7107 47.0672 22.6339C47.2507 22.5572 47.4172 22.4447 47.5571 22.303C47.8419 22.0112 48.001 21.619 48 21.2108V13.5397C48 13.4881 47.9974 13.4364 47.9923 13.3848H47.9863ZM29.8489 39.6406C27.9024 39.6393 26.0006 39.0552 24.3877 37.9635C22.7677 36.8589 21.5086 35.3005 20.7678 33.4829C20.024 31.6551 19.8297 29.6494 20.209 27.7124C20.5852 25.782 21.5206 24.0053 22.8984 22.6041C23.9205 21.5621 25.1629 20.7628 26.5342 20.2656C27.9054 19.7684 29.3706 19.5858 30.8217 19.731C32.2727 19.8763 33.6728 20.3458 34.9188 21.105C36.1647 21.8642 37.2248 22.8935 38.021 24.1175C39.2853 26.0414 39.8533 28.3416 39.6303 30.6342C39.4072 32.9268 38.4066 35.0736 36.7952 36.7167C35.889 37.6417 34.8082 38.3765 33.6155 38.8785C32.4229 39.3805 31.1425 39.6396 29.8489 39.6406V39.6406Z" fill="white"/>
<path d="M112.497 25.31C108.969 25.31 106.197 27.956 106.197 31.718C106.197 35.48 108.969 38.108 112.497 38.108C115.899 38.108 118.365 35.606 118.653 32.492V31.232H111.903V32.564H116.907C116.655 35.048 114.963 36.632 112.497 36.632C109.851 36.632 107.871 34.724 107.871 31.718C107.871 28.694 109.851 26.786 112.497 26.786C114.261 26.786 115.629 27.632 116.313 29.09H118.275C117.339 26.678 115.143 25.31 112.497 25.31ZM125.513 29.36C127.205 29.36 128.645 30.422 128.627 32.348H122.399C122.579 30.422 123.911 29.36 125.513 29.36ZM130.121 34.958H128.357C127.997 36.02 127.061 36.776 125.585 36.776C123.911 36.776 122.507 35.678 122.381 33.68H130.265C130.301 33.338 130.319 33.05 130.319 32.69C130.319 29.99 128.447 27.974 125.585 27.974C122.705 27.974 120.707 29.936 120.707 33.05C120.707 36.182 122.777 38.162 125.585 38.162C128.033 38.162 129.617 36.758 130.121 34.958ZM140.199 38H141.819V32.186C141.819 29.36 140.073 27.956 137.787 27.956C136.455 27.956 135.267 28.514 134.619 29.54V28.136H132.981V38H134.619V32.546C134.619 30.422 135.771 29.378 137.445 29.378C139.101 29.378 140.199 30.404 140.199 32.42V38ZM144.382 33.032C144.382 36.092 146.416 38.162 149.062 38.162C150.862 38.162 152.14 37.244 152.734 36.146V38H154.39V24.68H152.734V29.9C152.05 28.766 150.628 27.974 149.08 27.974C146.416 27.974 144.382 29.954 144.382 33.032ZM152.734 33.05C152.734 35.372 151.186 36.722 149.386 36.722C147.586 36.722 146.056 35.354 146.056 33.032C146.056 30.71 147.586 29.396 149.386 29.396C151.186 29.396 152.734 30.764 152.734 33.05ZM161.852 29.36C163.544 29.36 164.984 30.422 164.966 32.348H158.738C158.918 30.422 160.25 29.36 161.852 29.36ZM166.46 34.958H164.696C164.336 36.02 163.4 36.776 161.924 36.776C160.25 36.776 158.846 35.678 158.72 33.68H166.604C166.64 33.338 166.658 33.05 166.658 32.69C166.658 29.99 164.786 27.974 161.924 27.974C159.044 27.974 157.046 29.936 157.046 33.05C157.046 36.182 159.116 38.162 161.924 38.162C164.372 38.162 165.956 36.758 166.46 34.958ZM170.959 32.636C170.959 30.35 172.147 29.648 173.713 29.648H174.145V27.956C172.579 27.956 171.517 28.64 170.959 29.738V28.136H169.321V38H170.959V32.636ZM188.584 25.436H181.834V38H188.584V36.65H183.472V32.33H188.044V30.98H183.472V26.786H188.584V25.436ZM190.951 33.032C190.951 36.092 192.985 38.162 195.595 38.162C197.431 38.162 198.745 37.19 199.303 36.182V42.68H200.959V28.136H199.303V29.936C198.745 28.91 197.449 27.974 195.649 27.974C192.985 27.974 190.951 29.954 190.951 33.032ZM199.303 33.05C199.303 35.372 197.755 36.722 195.955 36.722C194.155 36.722 192.625 35.354 192.625 33.032C192.625 30.71 194.155 29.396 195.955 29.396C197.755 29.396 199.303 30.764 199.303 33.05ZM212.975 28.136H211.337V33.554C211.337 35.678 210.203 36.722 208.511 36.722C206.855 36.722 205.757 35.696 205.757 33.698V28.136H204.137V33.914C204.137 36.74 205.919 38.144 208.187 38.144C209.501 38.144 210.707 37.568 211.337 36.542V38H212.975V28.136ZM215.628 33.032C215.628 36.092 217.662 38.162 220.29 38.162C222.108 38.162 223.386 37.226 223.98 36.164V38H225.636V28.136H223.98V29.936C223.404 28.91 222.144 27.974 220.308 27.974C217.662 27.974 215.628 29.954 215.628 33.032ZM223.98 33.05C223.98 35.372 222.432 36.722 220.632 36.722C218.832 36.722 217.302 35.354 217.302 33.032C217.302 30.71 218.832 29.396 220.632 29.396C222.432 29.396 223.98 30.764 223.98 33.05ZM228.905 38H230.543V24.68H228.905V38ZM233.834 38H235.472V28.136H233.834V38ZM234.68 26.534C235.274 26.534 235.76 26.048 235.76 25.418C235.76 24.788 235.274 24.302 234.68 24.302C234.05 24.302 233.564 24.788 233.564 25.418C233.564 26.048 234.05 26.534 234.68 26.534ZM239.124 35.3C239.124 37.28 240.114 38 241.86 38H243.336V36.614H242.13C241.122 36.614 240.762 36.272 240.762 35.3V29.486H243.336V28.136H240.762V25.652H239.124V28.136H237.846V29.486H239.124V35.3ZM249.565 36.128L246.469 28.136H244.651L248.629 37.892L246.685 42.644H248.377L254.317 28.136H252.625L249.565 36.128Z" fill="#1F0045"/>
<line x1="79.5" y1="168" x2="79.5" y2="104" stroke="#FFC710"/>
<path d="M110.292 119.454H106.386V132H110.292C114.414 132 116.952 129.642 116.952 125.754C116.952 121.866 114.414 119.454 110.292 119.454ZM108.024 130.65V120.786H110.292C113.568 120.786 115.278 122.694 115.278 125.754C115.278 128.814 113.568 130.65 110.292 130.65H108.024ZM123.807 123.36C125.499 123.36 126.939 124.422 126.921 126.348H120.693C120.873 124.422 122.205 123.36 123.807 123.36ZM128.415 128.958H126.651C126.291 130.02 125.355 130.776 123.879 130.776C122.205 130.776 120.801 129.678 120.675 127.68H128.559C128.595 127.338 128.613 127.05 128.613 126.69C128.613 123.99 126.741 121.974 123.879 121.974C120.999 121.974 119.001 123.936 119.001 127.05C119.001 130.182 121.071 132.162 123.879 132.162C126.327 132.162 127.911 130.758 128.415 128.958ZM130.663 127.05C130.663 130.182 132.661 132.162 135.469 132.162C137.917 132.162 139.519 130.794 140.023 128.832H138.259C137.899 130.074 136.927 130.776 135.469 130.776C133.669 130.776 132.337 129.498 132.337 127.05C132.337 124.638 133.669 123.36 135.469 123.36C136.927 123.36 137.917 124.116 138.259 125.304H140.023C139.519 123.234 137.917 121.974 135.469 121.974C132.661 121.974 130.663 123.954 130.663 127.05ZM146.902 123.36C148.594 123.36 150.034 124.422 150.016 126.348H143.788C143.968 124.422 145.3 123.36 146.902 123.36ZM151.51 128.958H149.746C149.386 130.02 148.45 130.776 146.974 130.776C145.3 130.776 143.896 129.678 143.77 127.68H151.654C151.69 127.338 151.708 127.05 151.708 126.69C151.708 123.99 149.836 121.974 146.974 121.974C144.094 121.974 142.096 123.936 142.096 127.05C142.096 130.182 144.166 132.162 146.974 132.162C149.422 132.162 151.006 130.758 151.51 128.958ZM161.588 132H163.208V126.186C163.208 123.36 161.462 121.956 159.176 121.956C157.844 121.956 156.656 122.514 156.008 123.54V122.136H154.37V132H156.008V126.546C156.008 124.422 157.16 123.378 158.834 123.378C160.49 123.378 161.588 124.404 161.588 126.42V132ZM166.744 129.3C166.744 131.28 167.734 132 169.48 132H170.956V130.614H169.75C168.742 130.614 168.382 130.272 168.382 129.3V123.486H170.956V122.136H168.382V119.652H166.744V122.136H165.466V123.486H166.744V129.3ZM180.666 132H182.358L184.734 124.17L187.11 132H188.802L191.88 122.136H190.26L188.028 130.434L185.634 122.136H183.96L181.512 130.416L179.244 122.136H177.57L180.666 132ZM203.365 127.05C203.365 123.936 201.187 121.974 198.379 121.974C195.589 121.974 193.393 123.936 193.393 127.05C193.393 130.182 195.517 132.162 198.307 132.162C201.115 132.162 203.365 130.182 203.365 127.05ZM195.067 127.05C195.067 124.566 196.633 123.396 198.361 123.396C200.053 123.396 201.691 124.566 201.691 127.05C201.691 129.552 200.017 130.722 198.307 130.722C196.597 130.722 195.067 129.552 195.067 127.05ZM207.657 126.636C207.657 124.35 208.845 123.648 210.411 123.648H210.843V121.956C209.277 121.956 208.215 122.64 207.657 123.738V122.136H206.019V132H207.657V126.636ZM213.234 132H214.872V127.644L218.742 132H220.974L216.312 127.05L220.956 122.136H218.67L214.872 126.51V118.68H213.234V132ZM227.684 127.032C227.684 130.092 229.718 132.162 232.346 132.162C234.164 132.162 235.442 131.226 236.036 130.164V132H237.692V122.136H236.036V123.936C235.46 122.91 234.2 121.974 232.364 121.974C229.718 121.974 227.684 123.954 227.684 127.032ZM236.036 127.05C236.036 129.372 234.488 130.722 232.688 130.722C230.888 130.722 229.358 129.354 229.358 127.032C229.358 124.71 230.888 123.396 232.688 123.396C234.488 123.396 236.036 124.764 236.036 127.05ZM248.178 132H249.798V126.186C249.798 123.36 248.052 121.956 245.766 121.956C244.434 121.956 243.246 122.514 242.598 123.54V122.136H240.96V132H242.598V126.546C242.598 124.422 243.75 123.378 245.424 123.378C247.08 123.378 248.178 124.404 248.178 126.42V132ZM252.362 127.032C252.362 130.092 254.396 132.162 257.042 132.162C258.842 132.162 260.12 131.244 260.714 130.146V132H262.37V118.68H260.714V123.9C260.03 122.766 258.608 121.974 257.06 121.974C254.396 121.974 252.362 123.954 252.362 127.032ZM260.714 127.05C260.714 129.372 259.166 130.722 257.366 130.722C255.566 130.722 254.036 129.354 254.036 127.032C254.036 124.71 255.566 123.396 257.366 123.396C259.166 123.396 260.714 124.764 260.714 127.05ZM110.58 143.36C112.272 143.36 113.712 144.422 113.694 146.348H107.466C107.646 144.422 108.978 143.36 110.58 143.36ZM115.188 148.958H113.424C113.064 150.02 112.128 150.776 110.652 150.776C108.978 150.776 107.574 149.678 107.448 147.68H115.332C115.368 147.338 115.386 147.05 115.386 146.69C115.386 143.99 113.514 141.974 110.652 141.974C107.772 141.974 105.774 143.936 105.774 147.05C105.774 150.182 107.844 152.162 110.652 152.162C113.1 152.162 114.684 150.758 115.188 148.958ZM117.436 147.05C117.436 150.182 119.434 152.162 122.242 152.162C124.69 152.162 126.292 150.794 126.796 148.832H125.032C124.672 150.074 123.7 150.776 122.242 150.776C120.442 150.776 119.11 149.498 119.11 147.05C119.11 144.638 120.442 143.36 122.242 143.36C123.7 143.36 124.69 144.116 125.032 145.304H126.796C126.292 143.234 124.69 141.974 122.242 141.974C119.434 141.974 117.436 143.954 117.436 147.05ZM138.842 147.05C138.842 143.936 136.664 141.974 133.856 141.974C131.066 141.974 128.87 143.936 128.87 147.05C128.87 150.182 130.994 152.162 133.784 152.162C136.592 152.162 138.842 150.182 138.842 147.05ZM130.544 147.05C130.544 144.566 132.11 143.396 133.838 143.396C135.53 143.396 137.168 144.566 137.168 147.05C137.168 149.552 135.494 150.722 133.784 150.722C132.074 150.722 130.544 149.552 130.544 147.05ZM148.713 152H150.333V146.186C150.333 143.36 148.587 141.956 146.301 141.956C144.969 141.956 143.781 142.514 143.133 143.54V142.136H141.495V152H143.133V146.546C143.133 144.422 144.285 143.378 145.959 143.378C147.615 143.378 148.713 144.404 148.713 146.42V152ZM162.869 147.05C162.869 143.936 160.691 141.974 157.883 141.974C155.093 141.974 152.897 143.936 152.897 147.05C152.897 150.182 155.021 152.162 157.811 152.162C160.619 152.162 162.869 150.182 162.869 147.05ZM154.571 147.05C154.571 144.566 156.137 143.396 157.865 143.396C159.557 143.396 161.195 144.566 161.195 147.05C161.195 149.552 159.521 150.722 157.811 150.722C156.101 150.722 154.571 149.552 154.571 147.05ZM179.761 152H181.381V146.186C181.381 143.36 179.635 141.956 177.385 141.956C175.873 141.956 174.469 142.73 173.893 144.152C173.245 142.676 171.895 141.956 170.275 141.956C168.979 141.956 167.809 142.514 167.161 143.558V142.136H165.523V152H167.161V146.564C167.161 144.44 168.295 143.378 169.951 143.378C171.571 143.378 172.651 144.404 172.651 146.42V152H174.271V146.564C174.271 144.44 175.405 143.378 177.061 143.378C178.681 143.378 179.761 144.404 179.761 146.42V152ZM184.568 152H186.206V142.136H184.568V152ZM185.414 140.534C186.008 140.534 186.494 140.048 186.494 139.418C186.494 138.788 186.008 138.302 185.414 138.302C184.784 138.302 184.298 138.788 184.298 139.418C184.298 140.048 184.784 140.534 185.414 140.534ZM188.885 147.05C188.885 150.182 190.883 152.162 193.691 152.162C196.139 152.162 197.741 150.794 198.245 148.832H196.481C196.121 150.074 195.149 150.776 193.691 150.776C191.891 150.776 190.559 149.498 190.559 147.05C190.559 144.638 191.891 143.36 193.691 143.36C195.149 143.36 196.139 144.116 196.481 145.304H198.245C197.741 143.234 196.139 141.974 193.691 141.974C190.883 141.974 188.885 143.954 188.885 147.05ZM205.618 147.032C205.618 150.092 207.652 152.162 210.298 152.162C212.098 152.162 213.376 151.208 213.97 150.146V152.216C213.97 154.322 212.656 155.438 210.91 155.438C209.29 155.438 208.12 154.628 207.76 153.44H206.14C206.464 155.546 208.318 156.86 210.91 156.86C213.808 156.86 215.626 154.934 215.626 152.216V142.136H213.97V143.936C213.394 142.874 212.098 141.974 210.298 141.974C207.652 141.974 205.618 143.954 205.618 147.032ZM213.97 147.05C213.97 149.372 212.422 150.722 210.622 150.722C208.822 150.722 207.292 149.354 207.292 147.032C207.292 144.71 208.822 143.396 210.622 143.396C212.422 143.396 213.97 144.764 213.97 147.05ZM220.532 146.636C220.532 144.35 221.72 143.648 223.286 143.648H223.718V141.956C222.152 141.956 221.09 142.64 220.532 143.738V142.136H218.894V152H220.532V146.636ZM235.469 147.05C235.469 143.936 233.291 141.974 230.483 141.974C227.693 141.974 225.497 143.936 225.497 147.05C225.497 150.182 227.621 152.162 230.411 152.162C233.219 152.162 235.469 150.182 235.469 147.05ZM227.171 147.05C227.171 144.566 228.737 143.396 230.465 143.396C232.157 143.396 233.795 144.566 233.795 147.05C233.795 149.552 232.121 150.722 230.411 150.722C228.701 150.722 227.171 149.552 227.171 147.05ZM240.048 152H241.74L244.116 144.17L246.492 152H248.184L251.262 142.136H249.642L247.41 150.434L245.016 142.136H243.342L240.894 150.416L238.626 142.136H236.952L240.048 152ZM253.748 149.3C253.748 151.28 254.738 152 256.484 152H257.96V150.614H256.754C255.746 150.614 255.386 150.272 255.386 149.3V143.486H257.96V142.136H255.386V139.652H253.748V142.136H252.47V143.486H253.748V149.3ZM260.445 152H262.083V146.546C262.083 144.422 263.235 143.378 264.909 143.378C266.565 143.378 267.663 144.404 267.663 146.42V152H269.283V146.186C269.283 143.36 267.537 141.956 265.341 141.956C263.955 141.956 262.731 142.514 262.083 143.558V138.68H260.445V152Z" fill="#1F0045"/>
<path d="M32 168C49.6731 168 64 153.673 64 136C64 118.327 49.6731 104 32 104C14.3269 104 0 118.327 0 136C0 153.673 14.3269 168 32 168Z" fill="#1F0045"/>
<path d="M16.6238 144.312L25.4941 135.445V151.462C25.4943 151.719 25.4437 151.974 25.3453 152.211C25.247 152.449 25.1027 152.664 24.9209 152.846C24.739 153.027 24.5231 153.171 24.2856 153.269C24.0481 153.367 23.7935 153.417 23.5366 153.417H18.5813C18.3244 153.417 18.0699 153.367 17.8323 153.269C17.5948 153.171 17.3789 153.027 17.1971 152.846C17.0152 152.664 16.871 152.449 16.7726 152.211C16.6743 151.974 16.6237 151.719 16.6238 151.462V144.312Z" fill="white"/>
<path d="M37.9117 134.413L46.7813 125.248V151.462C46.779 151.981 46.5719 152.477 46.2052 152.843C45.8385 153.209 45.3419 153.415 44.8237 153.417H39.8684C39.35 153.416 38.8528 153.21 38.486 152.844C38.1191 152.478 37.9126 151.981 37.9117 151.462V134.413Z" fill="white"/>
<path d="M27.2675 132.126L32.0931 136.956C32.4609 137.322 32.9583 137.527 33.4768 137.527C33.9953 137.527 34.4927 137.322 34.8605 136.956L36.1405 135.676V151.463C36.1382 151.981 35.9312 152.477 35.5644 152.843C35.1977 153.209 34.7011 153.415 34.1829 153.417H29.2276C28.7094 153.415 28.2129 153.209 27.8461 152.843C27.4794 152.477 27.2723 151.981 27.2701 151.463L27.2675 132.126Z" fill="white"/>
<path d="M48.5547 122.347L33.4762 138.304L27.2674 132.578L15.325 144.542" stroke="#1B0142" stroke-width="3" stroke-linecap="round" stroke-linejoin="round"/>
<path fill-rule="evenodd" clip-rule="evenodd" d="M50.3133 119.36C50.3133 119.021 50.1785 118.695 49.9384 118.455C49.6984 118.215 49.3728 118.08 49.0333 118.08H41.2867C40.9473 118.08 40.6217 118.215 40.3816 118.455C40.1416 118.695 40.0067 119.021 40.0067 119.36C40.0067 119.699 40.1416 120.025 40.3816 120.265C40.6217 120.505 40.9473 120.64 41.2867 120.64H46.2625L33.5555 134.055L28.0789 128.832C27.8363 128.601 27.5127 128.474 27.1776 128.479C26.8426 128.484 26.5228 128.62 26.2869 128.858L15.3053 140.002C15.1766 140.119 15.0732 140.261 15.0013 140.42C14.9294 140.579 14.8907 140.75 14.8873 140.924C14.884 141.098 14.9162 141.271 14.9819 141.432C15.0477 141.593 15.1456 141.739 15.2697 141.861C15.3938 141.983 15.5415 142.079 15.7037 142.142C15.866 142.205 16.0394 142.234 16.2133 142.228C16.3872 142.222 16.5581 142.18 16.7153 142.105C16.8726 142.031 17.0131 141.925 17.128 141.794L27.2264 131.554L32.721 136.794C32.8421 136.911 32.9854 137.003 33.1425 137.065C33.2997 137.127 33.4675 137.156 33.6362 137.152C33.8049 137.148 33.9711 137.111 34.1251 137.042C34.2792 136.973 34.418 136.874 34.5335 136.751L47.7601 122.79V127.108C47.7601 127.448 47.895 127.773 48.135 128.013C48.3751 128.253 48.7007 128.388 49.0401 128.388C49.3796 128.388 49.7052 128.253 49.9452 128.013C50.1853 127.773 50.3201 127.448 50.3201 127.108L50.3133 119.36Z" fill="white"/>
<line x1="79.5" y1="272" x2="79.5" y2="208" stroke="#FFC710"/>
<path d="M115.746 237.144C115.746 238.548 114.936 239.556 113.082 239.556H110.67V234.804H113.082C114.954 234.804 115.746 235.722 115.746 237.144ZM109.032 233.454V246H110.67V240.87H112.65L115.638 246H117.6L114.45 240.744C116.556 240.276 117.438 238.746 117.438 237.144C117.438 235.092 116.034 233.454 113.082 233.454H109.032ZM124.677 237.36C126.369 237.36 127.809 238.422 127.791 240.348H121.563C121.743 238.422 123.075 237.36 124.677 237.36ZM129.285 242.958H127.521C127.161 244.02 126.225 244.776 124.749 244.776C123.075 244.776 121.671 243.678 121.545 241.68H129.429C129.465 241.338 129.483 241.05 129.483 240.69C129.483 237.99 127.611 235.974 124.749 235.974C121.869 235.974 119.871 237.936 119.871 241.05C119.871 244.182 121.941 246.162 124.749 246.162C127.197 246.162 128.781 244.758 129.285 242.958ZM131.533 241.032C131.533 244.092 133.567 246.162 136.213 246.162C138.013 246.162 139.291 245.244 139.885 244.146V246H141.541V232.68H139.885V237.9C139.201 236.766 137.779 235.974 136.231 235.974C133.567 235.974 131.533 237.954 131.533 241.032ZM139.885 241.05C139.885 243.372 138.337 244.722 136.537 244.722C134.737 244.722 133.207 243.354 133.207 241.032C133.207 238.71 134.737 237.396 136.537 237.396C138.337 237.396 139.885 238.764 139.885 241.05ZM153.557 236.136H151.919V241.554C151.919 243.678 150.785 244.722 149.093 244.722C147.437 244.722 146.339 243.696 146.339 241.698V236.136H144.719V241.914C144.719 244.74 146.501 246.144 148.769 246.144C150.083 246.144 151.289 245.568 151.919 244.542V246H153.557V236.136ZM156.211 241.05C156.211 244.182 158.209 246.162 161.017 246.162C163.465 246.162 165.067 244.794 165.571 242.832H163.807C163.447 244.074 162.475 244.776 161.017 244.776C159.217 244.776 157.885 243.498 157.885 241.05C157.885 238.638 159.217 237.36 161.017 237.36C162.475 237.36 163.465 238.116 163.807 239.304H165.571C165.067 237.234 163.465 235.974 161.017 235.974C158.209 235.974 156.211 237.954 156.211 241.05ZM172.45 237.36C174.142 237.36 175.582 238.422 175.564 240.348H169.336C169.516 238.422 170.848 237.36 172.45 237.36ZM177.058 242.958H175.294C174.934 244.02 173.998 244.776 172.522 244.776C170.848 244.776 169.444 243.678 169.318 241.68H177.202C177.238 241.338 177.256 241.05 177.256 240.69C177.256 237.99 175.384 235.974 172.522 235.974C169.642 235.974 167.644 237.936 167.644 241.05C167.644 244.182 169.714 246.162 172.522 246.162C174.97 246.162 176.554 244.758 177.058 242.958ZM179.306 241.032C179.306 244.092 181.34 246.162 183.986 246.162C185.786 246.162 187.064 245.244 187.658 244.146V246H189.314V232.68H187.658V237.9C186.974 236.766 185.552 235.974 184.004 235.974C181.34 235.974 179.306 237.954 179.306 241.032ZM187.658 241.05C187.658 243.372 186.11 244.722 184.31 244.722C182.51 244.722 180.98 243.354 180.98 241.032C180.98 238.71 182.51 237.396 184.31 237.396C186.11 237.396 187.658 238.764 187.658 241.05ZM197.881 246H199.519V236.136H197.881V246ZM198.727 234.534C199.321 234.534 199.807 234.048 199.807 233.418C199.807 232.788 199.321 232.302 198.727 232.302C198.097 232.302 197.611 232.788 197.611 233.418C197.611 234.048 198.097 234.534 198.727 234.534ZM210.029 246H211.649V240.186C211.649 237.36 209.903 235.956 207.617 235.956C206.285 235.956 205.097 236.514 204.449 237.54V236.136H202.811V246H204.449V240.546C204.449 238.422 205.601 237.378 207.275 237.378C208.931 237.378 210.029 238.404 210.029 240.42V246ZM219.018 237.36C220.71 237.36 222.15 238.422 222.132 240.348H215.904C216.084 238.422 217.416 237.36 219.018 237.36ZM223.626 242.958H221.862C221.502 244.02 220.566 244.776 219.09 244.776C217.416 244.776 216.012 243.678 215.886 241.68H223.77C223.806 241.338 223.824 241.05 223.824 240.69C223.824 237.99 221.952 235.974 219.09 235.974C216.21 235.974 214.212 237.936 214.212 241.05C214.212 244.182 216.282 246.162 219.09 246.162C221.538 246.162 223.122 244.758 223.626 242.958ZM225.875 241.032C225.875 244.092 227.909 246.162 230.519 246.162C232.355 246.162 233.669 245.19 234.227 244.182V250.68H235.883V236.136H234.227V237.936C233.669 236.91 232.373 235.974 230.573 235.974C227.909 235.974 225.875 237.954 225.875 241.032ZM234.227 241.05C234.227 243.372 232.679 244.722 230.879 244.722C229.079 244.722 227.549 243.354 227.549 241.032C227.549 238.71 229.079 237.396 230.879 237.396C232.679 237.396 234.227 238.764 234.227 241.05ZM247.899 236.136H246.261V241.554C246.261 243.678 245.127 244.722 243.435 244.722C241.779 244.722 240.681 243.696 240.681 241.698V236.136H239.061V241.914C239.061 244.74 240.843 246.144 243.111 246.144C244.425 246.144 245.631 245.568 246.261 244.542V246H247.899V236.136ZM250.552 241.032C250.552 244.092 252.586 246.162 255.214 246.162C257.032 246.162 258.31 245.226 258.904 244.164V246H260.56V236.136H258.904V237.936C258.328 236.91 257.068 235.974 255.232 235.974C252.586 235.974 250.552 237.954 250.552 241.032ZM258.904 241.05C258.904 243.372 257.356 244.722 255.556 244.722C253.756 244.722 252.226 243.354 252.226 241.032C252.226 238.71 253.756 237.396 255.556 237.396C257.356 237.396 258.904 238.764 258.904 241.05ZM263.828 246H265.466V232.68H263.828V246ZM268.758 246H270.396V236.136H268.758V246ZM269.604 234.534C270.198 234.534 270.684 234.048 270.684 233.418C270.684 232.788 270.198 232.302 269.604 232.302C268.974 232.302 268.488 232.788 268.488 233.418C268.488 234.048 268.974 234.534 269.604 234.534ZM274.048 243.3C274.048 245.28 275.038 246 276.784 246H278.26V244.614H277.054C276.046 244.614 275.686 244.272 275.686 243.3V237.486H278.26V236.136H275.686V233.652H274.048V236.136H272.77V237.486H274.048V243.3ZM280.744 246H282.382V236.136H280.744V246ZM281.59 234.534C282.184 234.534 282.67 234.048 282.67 233.418C282.67 232.788 282.184 232.302 281.59 232.302C280.96 232.302 280.474 232.788 280.474 233.418C280.474 234.048 280.96 234.534 281.59 234.534ZM289.868 237.36C291.56 237.36 293 238.422 292.982 240.348H286.754C286.934 238.422 288.266 237.36 289.868 237.36ZM294.476 242.958H292.712C292.352 244.02 291.416 244.776 289.94 244.776C288.266 244.776 286.862 243.678 286.736 241.68H294.62C294.656 241.338 294.674 241.05 294.674 240.69C294.674 237.99 292.802 235.974 289.94 235.974C287.06 235.974 285.062 237.936 285.062 241.05C285.062 244.182 287.132 246.162 289.94 246.162C292.388 246.162 293.972 244.758 294.476 242.958ZM304.428 243.318C304.356 239.79 298.632 241.068 298.632 238.728C298.632 237.936 299.352 237.36 300.558 237.36C301.872 237.36 302.628 238.08 302.7 239.07H304.338C304.23 237.144 302.79 235.974 300.612 235.974C298.416 235.974 296.994 237.216 296.994 238.728C296.994 242.4 302.826 241.122 302.826 243.318C302.826 244.128 302.106 244.776 300.81 244.776C299.424 244.776 298.578 244.056 298.488 243.102H296.796C296.904 244.902 298.524 246.162 300.828 246.162C303.006 246.162 304.428 244.938 304.428 243.318Z" fill="#1F0045"/>
<path d="M32 272C49.6731 272 64 257.673 64 240C64 222.327 49.6731 208 32 208C14.3269 208 0 222.327 0 240C0 257.673 14.3269 272 32 272Z" fill="#1F0045"/>
<path d="M31.569 219.452C31.6811 219.338 31.8146 219.248 31.9618 219.186C32.109 219.125 32.267 219.093 32.4266 219.093C32.5862 219.093 32.7442 219.125 32.8914 219.186C33.0386 219.248 33.1721 219.338 33.2842 219.452L53.4016 239.565C53.5152 239.678 53.6053 239.812 53.6669 239.96C53.7284 240.108 53.7601 240.266 53.7601 240.427C53.7601 240.587 53.7284 240.745 53.6669 240.893C53.6053 241.041 53.5152 241.175 53.4016 241.288L33.2842 261.402C33.1721 261.515 33.0386 261.606 32.8914 261.667C32.7442 261.729 32.5862 261.76 32.4266 261.76C32.267 261.76 32.109 261.729 31.9618 261.667C31.8146 261.606 31.6811 261.515 31.569 261.402L11.4483 241.288C11.2207 241.059 11.0929 240.75 11.0929 240.427C11.0929 240.104 11.2207 239.794 11.4483 239.565L31.569 219.452Z" fill="white"/>
<path d="M17.8696 227.08C17.8705 226.759 17.9987 226.451 18.2261 226.224C18.4535 225.997 18.7616 225.869 19.083 225.869H45.7728C46.0937 225.87 46.4011 225.998 46.6281 226.225C46.855 226.452 46.9831 226.759 46.9845 227.08V253.773C46.9831 254.094 46.855 254.401 46.6281 254.628C46.4011 254.855 46.0937 254.983 45.7728 254.985H19.083C18.7616 254.984 18.4535 254.856 18.2261 254.629C17.9987 254.402 17.8705 254.094 17.8696 253.773V227.08Z" fill="#1B0142"/>
<path d="M25.1467 245.282H39.7037M25.1467 235.571H39.7037H25.1467Z" stroke="white" stroke-width="4" stroke-linecap="round"/>
</svg>
