<svg width="699" height="178" viewBox="0 0 699 178" fill="none" xmlns="http://www.w3.org/2000/svg">
<path d="M50 0C57.9112 0 65.6448 2.34596 72.2228 6.74121C78.8008 11.1365 83.9277 17.3836 86.9552 24.6927C89.9827 32.0017 90.7748 40.0444 89.2314 47.8036C87.688 55.5628 83.8784 62.6902 78.2843 68.2843C72.6902 73.8784 65.5628 77.688 57.8036 79.2314C50.0444 80.7748 42.0017 79.9827 34.6927 76.9552C27.3836 73.9277 21.1365 68.8008 16.7412 62.2228C12.346 55.6448 10 47.9112 10 40C10 29.3913 14.2143 19.2172 21.7157 11.7157C29.2172 4.21427 39.3913 0 50 0Z" fill="#1F0045"/>
<path d="M41.7036 40.1171H53.5554M41.7036 34.1973H53.5554H41.7036Z" stroke="white" stroke-width="3" stroke-linecap="round"/>
<path d="M69.8402 16.6505C69.8402 16.6185 69.8327 16.597 69.8295 16.565C69.8263 16.533 69.8199 16.5012 69.8135 16.4692C69.8071 16.4372 69.7986 16.4054 69.7911 16.3734C69.7855 16.3445 69.778 16.3159 69.7687 16.288C69.7602 16.256 69.7484 16.2241 69.7388 16.1921C69.7292 16.1601 69.7186 16.1387 69.7068 16.1067C69.6951 16.0747 69.6823 16.053 69.6695 16.0317C69.6567 16.0104 69.6428 15.9679 69.6279 15.9359C69.6115 15.9121 69.5968 15.8874 69.5842 15.8614C69.5652 15.8341 69.5481 15.8055 69.533 15.776C69.5159 15.7546 69.4956 15.7228 69.4764 15.7015C69.4565 15.6785 69.439 15.6531 69.4242 15.6265C69.3879 15.5838 69.3506 15.541 69.3111 15.4984C69.3111 15.4984 69.3036 15.4986 69.2994 15.488C69.2951 15.4773 69.2898 15.4877 69.2855 15.477C69.246 15.4343 69.2044 15.4025 69.1618 15.3598C69.1394 15.3492 69.117 15.3278 69.0935 15.3171L69.0135 15.2531C68.9879 15.2317 68.9602 15.2213 68.9335 15.1999C68.9068 15.1786 68.8823 15.1679 68.8567 15.1572C68.8269 15.1474 68.7989 15.133 68.7735 15.1145L68.6892 15.0827L68.6103 15.0505L68.5154 15.0187C68.4914 15.0066 68.4653 14.9993 68.4386 14.9973L68.3319 14.965C68.3027 14.9666 68.2735 14.9633 68.2455 14.9546C68.2146 14.9546 68.1826 14.9437 68.1495 14.9437C68.1028 14.935 68.0552 14.9316 68.0076 14.9333H58.5709C58.0719 14.9352 57.594 15.1346 57.2418 15.488C56.8888 15.8484 56.6911 16.3329 56.6911 16.8374C56.6911 17.3419 56.8888 17.8259 57.2418 18.1864C57.594 18.5397 58.0719 18.7392 58.5709 18.7411H63.4402L57.7015 24.565C54.8631 22.0783 51.2277 20.6908 47.4543 20.6536C43.6808 20.6164 40.0188 21.9322 37.1319 24.3624C35.2042 25.9804 33.6805 28.0258 32.6818 30.3359C31.6792 32.654 31.2265 35.1726 31.359 37.6947C31.4915 40.2169 32.2056 42.6741 33.4455 44.8744C34.6767 47.066 36.4066 48.937 38.4951 50.3359C40.57 51.7317 42.9459 52.6162 45.4284 52.9171V57.7921H39.7922C39.2932 57.7937 38.8152 57.9932 38.4631 58.3468C38.1101 58.7072 37.9125 59.1913 37.9125 59.6958C37.9125 60.2002 38.1101 60.6848 38.4631 61.0452C38.8152 61.3989 39.2932 61.5984 39.7922 61.5999H45.4284V66.3572C45.4278 66.8634 45.6254 67.3497 45.9789 67.7119C46.1526 67.8876 46.3595 68.0271 46.5876 68.1223C46.8156 68.2175 47.0603 68.2666 47.3074 68.2666C47.5545 68.2666 47.7991 68.2175 48.0272 68.1223C48.2552 68.0271 48.4621 67.8876 48.6359 67.7119C48.9899 67.35 49.1876 66.8635 49.1863 66.3572V61.5999H54.8237C55.3223 61.5982 55.7999 61.3987 56.1516 61.0452C56.5046 60.6848 56.7023 60.2002 56.7023 59.6958C56.7023 59.1913 56.5046 58.7072 56.1516 58.3468C55.7999 57.9933 55.3223 57.7938 54.8237 57.7921H49.1863V52.9171C51.956 52.5851 54.5883 51.5253 56.8151 49.8452C59.0581 48.1625 60.823 45.9235 61.9351 43.3494C63.0534 40.7663 63.4859 37.9383 63.1908 35.139C62.8958 32.3397 61.8831 29.664 60.2508 27.3708L66.0994 21.44V26.3572C66.0987 26.8634 66.2963 27.3497 66.6498 27.7119C66.8236 27.8876 67.0305 28.0271 67.2585 28.1223C67.4866 28.2175 67.7312 28.2666 67.9783 28.2666C68.2254 28.2666 68.4701 28.2175 68.6981 28.1223C68.9262 28.0271 69.1331 27.8876 69.3069 27.7119C69.6608 27.35 69.8585 26.8635 69.8572 26.3572V16.8426C69.8572 16.7786 69.854 16.7145 69.8476 16.6505H69.8402ZM47.3026 49.2161C44.8838 49.2145 42.5207 48.4899 40.5165 47.1359C38.5034 45.7658 36.9388 43.8329 36.0183 41.5786C35.0941 39.3115 34.8527 36.8237 35.3239 34.4213C35.7914 32.0269 36.9537 29.8233 38.6658 28.0853C39.9359 26.7929 41.4798 25.8016 43.1837 25.1848C44.8876 24.5681 46.7082 24.3417 48.5113 24.5218C50.3144 24.7019 52.0542 25.2843 53.6024 26.226C55.1506 27.1676 56.4679 28.4442 57.4572 29.9624C59.0283 32.3487 59.7341 35.2017 59.457 38.0452C59.1798 40.8888 57.9364 43.5516 55.934 45.5895C54.8081 46.7367 53.465 47.6481 51.983 48.2708C50.5011 48.8934 48.91 49.2148 47.3026 49.2161Z" fill="white"/>
<path d="M339 80C361.091 80 379 62.0914 379 40C379 17.9086 361.091 0 339 0C316.909 0 299 17.9086 299 40C299 62.0914 316.909 80 339 80Z" fill="#1F0045"/>
<path d="M319.78 50.3897L330.868 39.3069V59.3282C330.868 59.6494 330.805 59.9675 330.682 60.2642C330.559 60.5609 330.378 60.8305 330.151 61.0574C329.924 61.2843 329.654 61.4641 329.357 61.5866C329.06 61.709 328.742 61.7716 328.421 61.7709H322.227C321.905 61.7716 321.587 61.709 321.29 61.5866C320.993 61.4641 320.724 61.2843 320.496 61.0574C320.269 60.8305 320.089 60.5609 319.966 60.2642C319.843 59.9675 319.78 59.6494 319.78 59.3282V50.3897Z" fill="white"/>
<path d="M346.39 38.0161L357.477 26.5598V59.328C357.474 59.9758 357.215 60.596 356.757 61.0536C356.298 61.5112 355.677 61.7691 355.03 61.7708H348.835C348.187 61.7705 347.566 61.5131 347.107 61.0551C346.649 60.5972 346.391 59.9761 346.39 59.328V38.0161Z" fill="white"/>
<path d="M333.084 35.1572L339.116 41.1947C339.576 41.6517 340.198 41.9083 340.846 41.9083C341.494 41.9083 342.116 41.6517 342.576 41.1947L344.176 39.5947V59.3281C344.173 59.9758 343.914 60.596 343.456 61.0536C342.997 61.5112 342.376 61.7691 341.729 61.7708H335.534C334.887 61.7691 334.266 61.5112 333.808 61.0536C333.349 60.596 333.09 59.9758 333.088 59.3281L333.084 35.1572Z" fill="white"/>
<path d="M359.693 22.9333L340.845 42.8802L333.084 35.7229L318.156 50.6771" stroke="#1B0142" stroke-width="3" stroke-linecap="round" stroke-linejoin="round"/>
<path fill-rule="evenodd" clip-rule="evenodd" d="M361.892 19.2001C361.892 18.7758 361.723 18.3689 361.423 18.0688C361.123 17.7688 360.716 17.6001 360.292 17.6001H350.608C350.184 17.6001 349.777 17.7688 349.477 18.0688C349.177 18.3689 349.008 18.7758 349.008 19.2001C349.008 19.6244 349.177 20.0313 349.477 20.3313C349.777 20.6314 350.184 20.8001 350.608 20.8001H356.828L340.944 37.5683L334.099 31.0402C333.795 30.7513 333.391 30.5926 332.972 30.5985C332.553 30.6045 332.153 30.7745 331.859 31.072L318.132 45.0027C317.971 45.1492 317.841 45.327 317.752 45.5251C317.662 45.7232 317.613 45.9378 317.609 46.1553C317.605 46.3728 317.645 46.5888 317.727 46.7902C317.81 46.9916 317.932 47.1741 318.087 47.3267C318.242 47.4792 318.427 47.5984 318.63 47.6772C318.832 47.7559 319.049 47.7929 319.267 47.785C319.484 47.7771 319.698 47.7251 319.894 47.6319C320.091 47.5387 320.266 47.4061 320.41 47.2428L333.033 34.4428L339.901 40.9923C340.053 41.1391 340.232 41.2544 340.428 41.3313C340.625 41.4083 340.834 41.4452 341.045 41.4402C341.256 41.4352 341.464 41.3883 341.656 41.3022C341.849 41.2161 342.022 41.0925 342.167 40.9386L358.7 23.4881V28.8855C358.7 29.3099 358.869 29.7167 359.169 30.0168C359.469 30.3168 359.876 30.4855 360.3 30.4855C360.724 30.4855 361.131 30.3168 361.432 30.0168C361.732 29.7167 361.9 29.3099 361.9 28.8855L361.892 19.2001Z" fill="white"/>
<path d="M629 80C651.091 80 669 62.0914 669 40C669 17.9086 651.091 0 629 0C606.909 0 589 17.9086 589 40C589 62.0914 606.909 80 629 80Z" fill="#1F0045"/>
<path d="M628.461 14.3146C628.601 14.1726 628.768 14.0598 628.952 13.9828C629.136 13.9059 629.334 13.8667 629.533 13.8667C629.733 13.8667 629.93 13.9059 630.114 13.9828C630.298 14.0598 630.465 14.1726 630.605 14.3146L655.752 39.4563C655.894 39.5974 656.007 39.7651 656.084 39.95C656.161 40.1349 656.2 40.3331 656.2 40.5334C656.2 40.7336 656.161 40.9318 656.084 41.1167C656.007 41.3016 655.894 41.4693 655.752 41.6104L630.605 66.7521C630.465 66.8941 630.298 67.0069 630.114 67.0839C629.93 67.1608 629.733 67.2 629.533 67.2C629.334 67.2 629.136 67.1608 628.952 67.0839C628.768 67.0069 628.601 66.8941 628.461 66.7521L603.31 41.6104C603.026 41.3241 602.866 40.937 602.866 40.5334C602.866 40.1297 603.026 39.7426 603.31 39.4563L628.461 14.3146Z" fill="white"/>
<path d="M611.337 23.8505C611.338 23.4488 611.498 23.0641 611.783 22.7802C612.067 22.4963 612.452 22.3365 612.854 22.3359H646.216C646.617 22.3376 647.001 22.4976 647.285 22.7813C647.569 23.0649 647.729 23.4493 647.731 23.8505V57.2161C647.729 57.6173 647.569 58.0017 647.285 58.2854C647.001 58.5691 646.617 58.729 646.216 58.7307H612.854C612.452 58.7302 612.067 58.5703 611.783 58.2865C611.498 58.0026 611.338 57.6179 611.337 57.2161V23.8505Z" fill="#1B0142"/>
<path d="M620.433 46.6026H638.63M620.433 34.4641H638.63H620.433Z" stroke="white" stroke-width="4" stroke-linecap="round"/>
<line x1="26" y1="97.5" x2="74" y2="97.5" stroke="#FFC710"/>
<line x1="315" y1="97.5" x2="363" y2="97.5" stroke="#FFC710"/>
<line x1="603" y1="97.5" x2="651" y2="97.5" stroke="#FFC710"/>
<path d="M16.7113 130.1C16.3247 129.287 15.7647 128.66 15.0313 128.22C14.298 127.767 13.4447 127.54 12.4713 127.54C11.498 127.54 10.618 127.767 9.83133 128.22C9.05799 128.66 8.44466 129.3 7.99133 130.14C7.55133 130.967 7.33133 131.927 7.33133 133.02C7.33133 134.113 7.55133 135.073 7.99133 135.9C8.44466 136.727 9.05799 137.367 9.83133 137.82C10.618 138.26 11.498 138.48 12.4713 138.48C13.8313 138.48 14.9513 138.073 15.8313 137.26C16.7113 136.447 17.2247 135.347 17.3713 133.96H11.8113V132.48H19.3113V133.88C19.2047 135.027 18.8447 136.08 18.2313 137.04C17.618 137.987 16.8113 138.74 15.8113 139.3C14.8113 139.847 13.698 140.12 12.4713 140.12C11.178 140.12 9.99799 139.82 8.93133 139.22C7.86466 138.607 7.01799 137.76 6.39133 136.68C5.77799 135.6 5.47133 134.38 5.47133 133.02C5.47133 131.66 5.77799 130.44 6.39133 129.36C7.01799 128.267 7.86466 127.42 8.93133 126.82C9.99799 126.207 11.178 125.9 12.4713 125.9C13.9513 125.9 15.258 126.267 16.3913 127C17.538 127.733 18.3713 128.767 18.8913 130.1H16.7113ZM25.0377 127.54V132.2H30.1177V133.7H25.0377V138.5H30.7177V140H23.2177V126.04H30.7177V127.54H25.0377ZM45.9316 140H44.1116L36.7916 128.9V140H34.9716V126.04H36.7916L44.1116 137.12V126.04H45.9316V140ZM54.8741 126.06C56.3941 126.06 57.7075 126.347 58.8141 126.92C59.9341 127.48 60.7875 128.287 61.3741 129.34C61.9741 130.393 62.2741 131.633 62.2741 133.06C62.2741 134.487 61.9741 135.727 61.3741 136.78C60.7875 137.82 59.9341 138.62 58.8141 139.18C57.7075 139.727 56.3941 140 54.8741 140H50.5341V126.06H54.8741ZM54.8741 138.5C56.6741 138.5 58.0475 138.027 58.9941 137.08C59.9408 136.12 60.4141 134.78 60.4141 133.06C60.4141 131.327 59.9341 129.973 58.9741 129C58.0275 128.027 56.6608 127.54 54.8741 127.54H52.3541V138.5H54.8741ZM67.9948 127.54V132.2H73.0748V133.7H67.9948V138.5H73.6748V140H66.1748V126.04H73.6748V127.54H67.9948ZM85.2687 140L81.9487 134.3H79.7487V140H77.9287V126.06H82.4287C83.482 126.06 84.3687 126.24 85.0887 126.6C85.822 126.96 86.3687 127.447 86.7287 128.06C87.0887 128.673 87.2687 129.373 87.2687 130.16C87.2687 131.12 86.9887 131.967 86.4287 132.7C85.882 133.433 85.0553 133.92 83.9487 134.16L87.4487 140H85.2687ZM79.7487 132.84H82.4287C83.4153 132.84 84.1553 132.6 84.6487 132.12C85.142 131.627 85.3887 130.973 85.3887 130.16C85.3887 129.333 85.142 128.693 84.6487 128.24C84.1687 127.787 83.4287 127.56 82.4287 127.56H79.7487V132.84ZM3.58852 157.54V162.2H8.66852V163.7H3.58852V168.5H9.26852V170H1.76852V156.04H9.26852V157.54H3.58852ZM24.7024 172.64L21.9224 169.86C21.2424 170.047 20.5491 170.14 19.8424 170.14C18.5491 170.14 17.3691 169.84 16.3024 169.24C15.2358 168.627 14.3891 167.78 13.7624 166.7C13.1491 165.607 12.8424 164.38 12.8424 163.02C12.8424 161.66 13.1491 160.44 13.7624 159.36C14.3891 158.267 15.2358 157.42 16.3024 156.82C17.3691 156.207 18.5491 155.9 19.8424 155.9C21.1491 155.9 22.3358 156.207 23.4024 156.82C24.4691 157.42 25.3091 158.26 25.9224 159.34C26.5358 160.42 26.8424 161.647 26.8424 163.02C26.8424 164.353 26.5491 165.553 25.9624 166.62C25.3758 167.687 24.5691 168.527 23.5424 169.14L27.0624 172.64H24.7024ZM14.7024 163.02C14.7024 164.127 14.9224 165.1 15.3624 165.94C15.8158 166.78 16.4291 167.427 17.2024 167.88C17.9891 168.333 18.8691 168.56 19.8424 168.56C20.8158 168.56 21.6891 168.333 22.4624 167.88C23.2491 167.427 23.8624 166.78 24.3024 165.94C24.7558 165.1 24.9824 164.127 24.9824 163.02C24.9824 161.9 24.7558 160.927 24.3024 160.1C23.8624 159.26 23.2558 158.613 22.4824 158.16C21.7091 157.707 20.8291 157.48 19.8424 157.48C18.8558 157.48 17.9758 157.707 17.2024 158.16C16.4291 158.613 15.8158 159.26 15.3624 160.1C14.9224 160.927 14.7024 161.9 14.7024 163.02ZM32.5641 156.06V164.88C32.5641 166.12 32.8641 167.04 33.4641 167.64C34.0775 168.24 34.9241 168.54 36.0041 168.54C37.0708 168.54 37.9041 168.24 38.5041 167.64C39.1175 167.04 39.4241 166.12 39.4241 164.88V156.06H41.2441V164.86C41.2441 166.02 41.0108 167 40.5441 167.8C40.0775 168.587 39.4441 169.173 38.6441 169.56C37.8575 169.947 36.9708 170.14 35.9841 170.14C34.9975 170.14 34.1041 169.947 33.3041 169.56C32.5175 169.173 31.8908 168.587 31.4241 167.8C30.9708 167 30.7441 166.02 30.7441 164.86V156.06H32.5641ZM54.0202 166.9H47.9402L46.8202 170H44.9002L49.9402 156.14H52.0402L57.0602 170H55.1402L54.0202 166.9ZM53.5002 165.42L50.9802 158.38L48.4602 165.42H53.5002ZM62.5768 168.52H67.4568V170H60.7568V156.06H62.5768V168.52ZM72.7096 156.06V170H70.8896V156.06H72.7096ZM85.8915 156.06V157.54H82.0915V170H80.2715V157.54H76.4515V156.06H85.8915ZM99.3918 156.06L94.8518 164.74V170H93.0318V164.74L88.4718 156.06H90.4918L93.9318 163.12L97.3718 156.06H99.3918Z" fill="#1F0045"/>
<path d="M241.53 126.06C243.05 126.06 244.364 126.347 245.47 126.92C246.59 127.48 247.444 128.287 248.03 129.34C248.63 130.393 248.93 131.633 248.93 133.06C248.93 134.487 248.63 135.727 248.03 136.78C247.444 137.82 246.59 138.62 245.47 139.18C244.364 139.727 243.05 140 241.53 140H237.19V126.06H241.53ZM241.53 138.5C243.33 138.5 244.704 138.027 245.65 137.08C246.597 136.12 247.07 134.78 247.07 133.06C247.07 131.327 246.59 129.973 245.63 129C244.684 128.027 243.317 127.54 241.53 127.54H239.01V138.5H241.53ZM254.651 127.54V132.2H259.731V133.7H254.651V138.5H260.331V140H252.831V126.04H260.331V127.54H254.651ZM263.905 133.02C263.905 131.66 264.212 130.44 264.825 129.36C265.438 128.267 266.272 127.413 267.325 126.8C268.392 126.187 269.572 125.88 270.865 125.88C272.385 125.88 273.712 126.247 274.845 126.98C275.978 127.713 276.805 128.753 277.325 130.1H275.145C274.758 129.26 274.198 128.613 273.465 128.16C272.745 127.707 271.878 127.48 270.865 127.48C269.892 127.48 269.018 127.707 268.245 128.16C267.472 128.613 266.865 129.26 266.425 130.1C265.985 130.927 265.765 131.9 265.765 133.02C265.765 134.127 265.985 135.1 266.425 135.94C266.865 136.767 267.472 137.407 268.245 137.86C269.018 138.313 269.892 138.54 270.865 138.54C271.878 138.54 272.745 138.32 273.465 137.88C274.198 137.427 274.758 136.78 275.145 135.94H277.325C276.805 137.273 275.978 138.307 274.845 139.04C273.712 139.76 272.385 140.12 270.865 140.12C269.572 140.12 268.392 139.82 267.325 139.22C266.272 138.607 265.438 137.76 264.825 136.68C264.212 135.6 263.905 134.38 263.905 133.02ZM283.354 127.54V132.2H288.434V133.7H283.354V138.5H289.034V140H281.534V126.04H289.034V127.54H283.354ZM304.248 140H302.428L295.108 128.9V140H293.288V126.04H295.108L302.428 137.12V126.04H304.248V140ZM317.431 126.06V127.54H313.631V140H311.811V127.54H307.991V126.06H317.431ZM345.523 126.06L341.483 140H339.443L336.203 128.78L332.843 140L330.823 140.02L326.923 126.06H328.863L331.903 137.88L335.263 126.06H337.303L340.503 137.84L343.563 126.06H345.523ZM355.335 140.14C354.041 140.14 352.861 139.84 351.795 139.24C350.728 138.627 349.881 137.78 349.255 136.7C348.641 135.607 348.335 134.38 348.335 133.02C348.335 131.66 348.641 130.44 349.255 129.36C349.881 128.267 350.728 127.42 351.795 126.82C352.861 126.207 354.041 125.9 355.335 125.9C356.641 125.9 357.828 126.207 358.895 126.82C359.961 127.42 360.801 128.26 361.415 129.34C362.028 130.42 362.335 131.647 362.335 133.02C362.335 134.393 362.028 135.62 361.415 136.7C360.801 137.78 359.961 138.627 358.895 139.24C357.828 139.84 356.641 140.14 355.335 140.14ZM355.335 138.56C356.308 138.56 357.181 138.333 357.955 137.88C358.741 137.427 359.355 136.78 359.795 135.94C360.248 135.1 360.475 134.127 360.475 133.02C360.475 131.9 360.248 130.927 359.795 130.1C359.355 129.26 358.748 128.613 357.975 128.16C357.201 127.707 356.321 127.48 355.335 127.48C354.348 127.48 353.468 127.707 352.695 128.16C351.921 128.613 351.308 129.26 350.855 130.1C350.415 130.927 350.195 131.9 350.195 133.02C350.195 134.127 350.415 135.1 350.855 135.94C351.308 136.78 351.921 137.427 352.695 137.88C353.481 138.333 354.361 138.56 355.335 138.56ZM373.577 140L370.257 134.3H368.057V140H366.237V126.06H370.737C371.791 126.06 372.677 126.24 373.397 126.6C374.131 126.96 374.677 127.447 375.037 128.06C375.397 128.673 375.577 129.373 375.577 130.16C375.577 131.12 375.297 131.967 374.737 132.7C374.191 133.433 373.364 133.92 372.257 134.16L375.757 140H373.577ZM368.057 132.84H370.737C371.724 132.84 372.464 132.6 372.957 132.12C373.451 131.627 373.697 130.973 373.697 130.16C373.697 129.333 373.451 128.693 372.957 128.24C372.477 127.787 371.737 127.56 370.737 127.56H368.057V132.84ZM387.465 140L381.725 133.64V140H379.905V126.06H381.725V132.52L387.485 126.06H389.785L383.465 133.04L389.845 140H387.465ZM408.45 136.9H402.37L401.25 140H399.33L404.37 126.14H406.47L411.49 140H409.57L408.45 136.9ZM407.93 135.42L405.41 128.38L402.89 135.42H407.93ZM426.146 140H424.326L417.006 128.9V140H415.186V126.04H417.006L424.326 137.12V126.04H426.146V140ZM435.089 126.06C436.609 126.06 437.922 126.347 439.029 126.92C440.149 127.48 441.002 128.287 441.589 129.34C442.189 130.393 442.489 131.633 442.489 133.06C442.489 134.487 442.189 135.727 441.589 136.78C441.002 137.82 440.149 138.62 439.029 139.18C437.922 139.727 436.609 140 435.089 140H430.749V126.06H435.089ZM435.089 138.5C436.889 138.5 438.262 138.027 439.209 137.08C440.156 136.12 440.629 134.78 440.629 133.06C440.629 131.327 440.149 129.973 439.189 129C438.242 128.027 436.876 127.54 435.089 127.54H432.569V138.5H435.089ZM231.471 157.54V162.2H236.551V163.7H231.471V168.5H237.151V170H229.651V156.04H237.151V157.54H231.471ZM240.725 163.02C240.725 161.66 241.032 160.44 241.645 159.36C242.259 158.267 243.092 157.413 244.145 156.8C245.212 156.187 246.392 155.88 247.685 155.88C249.205 155.88 250.532 156.247 251.665 156.98C252.799 157.713 253.625 158.753 254.145 160.1H251.965C251.579 159.26 251.019 158.613 250.285 158.16C249.565 157.707 248.699 157.48 247.685 157.48C246.712 157.48 245.839 157.707 245.065 158.16C244.292 158.613 243.685 159.26 243.245 160.1C242.805 160.927 242.585 161.9 242.585 163.02C242.585 164.127 242.805 165.1 243.245 165.94C243.685 166.767 244.292 167.407 245.065 167.86C245.839 168.313 246.712 168.54 247.685 168.54C248.699 168.54 249.565 168.32 250.285 167.88C251.019 167.427 251.579 166.78 251.965 165.94H254.145C253.625 167.273 252.799 168.307 251.665 169.04C250.532 169.76 249.205 170.12 247.685 170.12C246.392 170.12 245.212 169.82 244.145 169.22C243.092 168.607 242.259 167.76 241.645 166.68C241.032 165.6 240.725 164.38 240.725 163.02ZM264.674 170.14C263.381 170.14 262.201 169.84 261.134 169.24C260.068 168.627 259.221 167.78 258.594 166.7C257.981 165.607 257.674 164.38 257.674 163.02C257.674 161.66 257.981 160.44 258.594 159.36C259.221 158.267 260.068 157.42 261.134 156.82C262.201 156.207 263.381 155.9 264.674 155.9C265.981 155.9 267.168 156.207 268.234 156.82C269.301 157.42 270.141 158.26 270.754 159.34C271.368 160.42 271.674 161.647 271.674 163.02C271.674 164.393 271.368 165.62 270.754 166.7C270.141 167.78 269.301 168.627 268.234 169.24C267.168 169.84 265.981 170.14 264.674 170.14ZM264.674 168.56C265.648 168.56 266.521 168.333 267.294 167.88C268.081 167.427 268.694 166.78 269.134 165.94C269.588 165.1 269.814 164.127 269.814 163.02C269.814 161.9 269.588 160.927 269.134 160.1C268.694 159.26 268.088 158.613 267.314 158.16C266.541 157.707 265.661 157.48 264.674 157.48C263.688 157.48 262.808 157.707 262.034 158.16C261.261 158.613 260.648 159.26 260.194 160.1C259.754 160.927 259.534 161.9 259.534 163.02C259.534 164.127 259.754 165.1 260.194 165.94C260.648 166.78 261.261 167.427 262.034 167.88C262.821 168.333 263.701 168.56 264.674 168.56ZM286.537 170H284.717L277.397 158.9V170H275.577V156.04H277.397L284.717 167.12V156.04H286.537V170ZM297.46 170.14C296.166 170.14 294.986 169.84 293.92 169.24C292.853 168.627 292.006 167.78 291.38 166.7C290.766 165.607 290.46 164.38 290.46 163.02C290.46 161.66 290.766 160.44 291.38 159.36C292.006 158.267 292.853 157.42 293.92 156.82C294.986 156.207 296.166 155.9 297.46 155.9C298.766 155.9 299.953 156.207 301.02 156.82C302.086 157.42 302.926 158.26 303.54 159.34C304.153 160.42 304.46 161.647 304.46 163.02C304.46 164.393 304.153 165.62 303.54 166.7C302.926 167.78 302.086 168.627 301.02 169.24C299.953 169.84 298.766 170.14 297.46 170.14ZM297.46 168.56C298.433 168.56 299.306 168.333 300.08 167.88C300.866 167.427 301.48 166.78 301.92 165.94C302.373 165.1 302.6 164.127 302.6 163.02C302.6 161.9 302.373 160.927 301.92 160.1C301.48 159.26 300.873 158.613 300.1 158.16C299.326 157.707 298.446 157.48 297.46 157.48C296.473 157.48 295.593 157.707 294.82 158.16C294.046 158.613 293.433 159.26 292.98 160.1C292.54 160.927 292.32 161.9 292.32 163.02C292.32 164.127 292.54 165.1 292.98 165.94C293.433 166.78 294.046 167.427 294.82 167.88C295.606 168.333 296.486 168.56 297.46 168.56ZM322.502 156.16V170H320.682V159.68L316.082 170H314.802L310.182 159.66V170H308.362V156.16H310.322L315.442 167.6L320.562 156.16H322.502ZM328.909 156.06V170H327.089V156.06H328.909ZM332.831 163.02C332.831 161.66 333.137 160.44 333.751 159.36C334.364 158.267 335.197 157.413 336.251 156.8C337.317 156.187 338.497 155.88 339.791 155.88C341.311 155.88 342.637 156.247 343.771 156.98C344.904 157.713 345.731 158.753 346.251 160.1H344.071C343.684 159.26 343.124 158.613 342.391 158.16C341.671 157.707 340.804 157.48 339.791 157.48C338.817 157.48 337.944 157.707 337.171 158.16C336.397 158.613 335.791 159.26 335.351 160.1C334.911 160.927 334.691 161.9 334.691 163.02C334.691 164.127 334.911 165.1 335.351 165.94C335.791 166.767 336.397 167.407 337.171 167.86C337.944 168.313 338.817 168.54 339.791 168.54C340.804 168.54 341.671 168.32 342.391 167.88C343.124 167.427 343.684 166.78 344.071 165.94H346.251C345.731 167.273 344.904 168.307 343.771 169.04C342.637 169.76 341.311 170.12 339.791 170.12C338.497 170.12 337.317 169.82 336.251 169.22C335.197 168.607 334.364 167.76 333.751 166.68C333.137 165.6 332.831 164.38 332.831 163.02ZM367.852 160.1C367.465 159.287 366.905 158.66 366.172 158.22C365.439 157.767 364.585 157.54 363.612 157.54C362.639 157.54 361.759 157.767 360.972 158.22C360.199 158.66 359.585 159.3 359.132 160.14C358.692 160.967 358.472 161.927 358.472 163.02C358.472 164.113 358.692 165.073 359.132 165.9C359.585 166.727 360.199 167.367 360.972 167.82C361.759 168.26 362.639 168.48 363.612 168.48C364.972 168.48 366.092 168.073 366.972 167.26C367.852 166.447 368.365 165.347 368.512 163.96H362.952V162.48H370.452V163.88C370.345 165.027 369.985 166.08 369.372 167.04C368.759 167.987 367.952 168.74 366.952 169.3C365.952 169.847 364.839 170.12 363.612 170.12C362.319 170.12 361.139 169.82 360.072 169.22C359.005 168.607 358.159 167.76 357.532 166.68C356.919 165.6 356.612 164.38 356.612 163.02C356.612 161.66 356.919 160.44 357.532 159.36C358.159 158.267 359.005 157.42 360.072 156.82C361.139 156.207 362.319 155.9 363.612 155.9C365.092 155.9 366.399 156.267 367.532 157C368.679 157.733 369.512 158.767 370.032 160.1H367.852ZM381.698 170L378.378 164.3H376.178V170H374.358V156.06H378.858C379.912 156.06 380.798 156.24 381.518 156.6C382.252 156.96 382.798 157.447 383.158 158.06C383.518 158.673 383.698 159.373 383.698 160.16C383.698 161.12 383.418 161.967 382.858 162.7C382.312 163.433 381.485 163.92 380.378 164.16L383.878 170H381.698ZM376.178 162.84H378.858C379.845 162.84 380.585 162.6 381.078 162.12C381.572 161.627 381.818 160.973 381.818 160.16C381.818 159.333 381.572 158.693 381.078 158.24C380.598 157.787 379.858 157.56 378.858 157.56H376.178V162.84ZM394.346 170.14C393.053 170.14 391.873 169.84 390.806 169.24C389.74 168.627 388.893 167.78 388.266 166.7C387.653 165.607 387.346 164.38 387.346 163.02C387.346 161.66 387.653 160.44 388.266 159.36C388.893 158.267 389.74 157.42 390.806 156.82C391.873 156.207 393.053 155.9 394.346 155.9C395.653 155.9 396.84 156.207 397.906 156.82C398.973 157.42 399.813 158.26 400.426 159.34C401.04 160.42 401.346 161.647 401.346 163.02C401.346 164.393 401.04 165.62 400.426 166.7C399.813 167.78 398.973 168.627 397.906 169.24C396.84 169.84 395.653 170.14 394.346 170.14ZM394.346 168.56C395.32 168.56 396.193 168.333 396.966 167.88C397.753 167.427 398.366 166.78 398.806 165.94C399.26 165.1 399.486 164.127 399.486 163.02C399.486 161.9 399.26 160.927 398.806 160.1C398.366 159.26 397.76 158.613 396.986 158.16C396.213 157.707 395.333 157.48 394.346 157.48C393.36 157.48 392.48 157.707 391.706 158.16C390.933 158.613 390.32 159.26 389.866 160.1C389.426 160.927 389.206 161.9 389.206 163.02C389.206 164.127 389.426 165.1 389.866 165.94C390.32 166.78 390.933 167.427 391.706 167.88C392.493 168.333 393.373 168.56 394.346 168.56ZM422.769 156.06L418.729 170H416.689L413.449 158.78L410.089 170L408.069 170.02L404.169 156.06H406.109L409.149 167.88L412.509 156.06H414.549L417.749 167.84L420.809 156.06H422.769ZM434.841 156.06V157.54H431.041V170H429.221V157.54H425.401V156.06H434.841ZM449.321 156.06V170H447.501V163.68H440.401V170H438.581V156.06H440.401V162.18H447.501V156.06H449.321Z" fill="#1F0045"/>
<path d="M588.429 140L585.109 134.3H582.909V140H581.089V126.06H585.589C586.642 126.06 587.529 126.24 588.249 126.6C588.982 126.96 589.529 127.447 589.889 128.06C590.249 128.673 590.429 129.373 590.429 130.16C590.429 131.12 590.149 131.967 589.589 132.7C589.042 133.433 588.215 133.92 587.109 134.16L590.609 140H588.429ZM582.909 132.84H585.589C586.575 132.84 587.315 132.6 587.809 132.12C588.302 131.627 588.549 130.973 588.549 130.16C588.549 129.333 588.302 128.693 587.809 128.24C587.329 127.787 586.589 127.56 585.589 127.56H582.909V132.84ZM596.577 127.54V132.2H601.657V133.7H596.577V138.5H602.257V140H594.757V126.04H602.257V127.54H596.577ZM610.851 126.06C612.371 126.06 613.684 126.347 614.791 126.92C615.911 127.48 616.764 128.287 617.351 129.34C617.951 130.393 618.251 131.633 618.251 133.06C618.251 134.487 617.951 135.727 617.351 136.78C616.764 137.82 615.911 138.62 614.791 139.18C613.684 139.727 612.371 140 610.851 140H606.511V126.06H610.851ZM610.851 138.5C612.651 138.5 614.024 138.027 614.971 137.08C615.917 136.12 616.391 134.78 616.391 133.06C616.391 131.327 615.911 129.973 614.951 129C614.004 128.027 612.637 127.54 610.851 127.54H608.331V138.5H610.851ZM623.931 126.06V134.88C623.931 136.12 624.231 137.04 624.831 137.64C625.445 138.24 626.291 138.54 627.371 138.54C628.438 138.54 629.271 138.24 629.871 137.64C630.485 137.04 630.791 136.12 630.791 134.88V126.06H632.611V134.86C632.611 136.02 632.378 137 631.911 137.8C631.445 138.587 630.811 139.173 630.011 139.56C629.225 139.947 628.338 140.14 627.351 140.14C626.365 140.14 625.471 139.947 624.671 139.56C623.885 139.173 623.258 138.587 622.791 137.8C622.338 137 622.111 136.02 622.111 134.86V126.06H623.931ZM636.467 133.02C636.467 131.66 636.774 130.44 637.387 129.36C638.001 128.267 638.834 127.413 639.887 126.8C640.954 126.187 642.134 125.88 643.427 125.88C644.947 125.88 646.274 126.247 647.407 126.98C648.541 127.713 649.367 128.753 649.887 130.1H647.707C647.321 129.26 646.761 128.613 646.027 128.16C645.307 127.707 644.441 127.48 643.427 127.48C642.454 127.48 641.581 127.707 640.807 128.16C640.034 128.613 639.427 129.26 638.987 130.1C638.547 130.927 638.327 131.9 638.327 133.02C638.327 134.127 638.547 135.1 638.987 135.94C639.427 136.767 640.034 137.407 640.807 137.86C641.581 138.313 642.454 138.54 643.427 138.54C644.441 138.54 645.307 138.32 646.027 137.88C646.761 137.427 647.321 136.78 647.707 135.94H649.887C649.367 137.273 648.541 138.307 647.407 139.04C646.274 139.76 644.947 140.12 643.427 140.12C642.134 140.12 640.954 139.82 639.887 139.22C638.834 138.607 638.001 137.76 637.387 136.68C636.774 135.6 636.467 134.38 636.467 133.02ZM655.917 127.54V132.2H660.997V133.7H655.917V138.5H661.597V140H654.097V126.04H661.597V127.54H655.917ZM670.191 126.06C671.711 126.06 673.024 126.347 674.131 126.92C675.251 127.48 676.104 128.287 676.691 129.34C677.291 130.393 677.591 131.633 677.591 133.06C677.591 134.487 677.291 135.727 676.691 136.78C676.104 137.82 675.251 138.62 674.131 139.18C673.024 139.727 671.711 140 670.191 140H665.851V126.06H670.191ZM670.191 138.5C671.991 138.5 673.364 138.027 674.311 137.08C675.257 136.12 675.731 134.78 675.731 133.06C675.731 131.327 675.251 129.973 674.291 129C673.344 128.027 671.977 127.54 670.191 127.54H667.671V138.5H670.191ZM562.479 156.06V170H560.659V156.06H562.479ZM578.041 170H576.221L568.901 158.9V170H567.081V156.04H568.901L576.221 167.12V156.04H578.041V170ZM584.464 157.54V162.2H589.544V163.7H584.464V168.5H590.144V170H582.644V156.04H590.144V157.54H584.464ZM605.577 172.64L602.797 169.86C602.117 170.047 601.424 170.14 600.717 170.14C599.424 170.14 598.244 169.84 597.177 169.24C596.111 168.627 595.264 167.78 594.637 166.7C594.024 165.607 593.717 164.38 593.717 163.02C593.717 161.66 594.024 160.44 594.637 159.36C595.264 158.267 596.111 157.42 597.177 156.82C598.244 156.207 599.424 155.9 600.717 155.9C602.024 155.9 603.211 156.207 604.277 156.82C605.344 157.42 606.184 158.26 606.797 159.34C607.411 160.42 607.717 161.647 607.717 163.02C607.717 164.353 607.424 165.553 606.837 166.62C606.251 167.687 605.444 168.527 604.417 169.14L607.937 172.64H605.577ZM595.577 163.02C595.577 164.127 595.797 165.1 596.237 165.94C596.691 166.78 597.304 167.427 598.077 167.88C598.864 168.333 599.744 168.56 600.717 168.56C601.691 168.56 602.564 168.333 603.337 167.88C604.124 167.427 604.737 166.78 605.177 165.94C605.631 165.1 605.857 164.127 605.857 163.02C605.857 161.9 605.631 160.927 605.177 160.1C604.737 159.26 604.131 158.613 603.357 158.16C602.584 157.707 601.704 157.48 600.717 157.48C599.731 157.48 598.851 157.707 598.077 158.16C597.304 158.613 596.691 159.26 596.237 160.1C595.797 160.927 595.577 161.9 595.577 163.02ZM613.439 156.06V164.88C613.439 166.12 613.739 167.04 614.339 167.64C614.952 168.24 615.799 168.54 616.879 168.54C617.946 168.54 618.779 168.24 619.379 167.64C619.992 167.04 620.299 166.12 620.299 164.88V156.06H622.119V164.86C622.119 166.02 621.886 167 621.419 167.8C620.952 168.587 620.319 169.173 619.519 169.56C618.732 169.947 617.846 170.14 616.859 170.14C615.872 170.14 614.979 169.947 614.179 169.56C613.392 169.173 612.766 168.587 612.299 167.8C611.846 167 611.619 166.02 611.619 164.86V156.06H613.439ZM634.895 166.9H628.815L627.695 170H625.775L630.815 156.14H632.915L637.935 170H636.015L634.895 166.9ZM634.375 165.42L631.855 158.38L629.335 165.42H634.375ZM643.452 168.52H648.332V170H641.632V156.06H643.452V168.52ZM653.585 156.06V170H651.765V156.06H653.585ZM666.766 156.06V157.54H662.966V170H661.146V157.54H657.326V156.06H666.766ZM672.327 156.06V170H670.507V156.06H672.327ZM678.749 157.54V162.2H683.829V163.7H678.749V168.5H684.429V170H676.929V156.04H684.429V157.54H678.749ZM693.103 170.14C692.183 170.14 691.356 169.98 690.623 169.66C689.903 169.327 689.336 168.873 688.923 168.3C688.509 167.713 688.296 167.04 688.283 166.28H690.223C690.289 166.933 690.556 167.487 691.023 167.94C691.503 168.38 692.196 168.6 693.103 168.6C693.969 168.6 694.649 168.387 695.143 167.96C695.649 167.52 695.903 166.96 695.903 166.28C695.903 165.747 695.756 165.313 695.463 164.98C695.169 164.647 694.803 164.393 694.363 164.22C693.923 164.047 693.329 163.86 692.583 163.66C691.663 163.42 690.923 163.18 690.363 162.94C689.816 162.7 689.343 162.327 688.943 161.82C688.556 161.3 688.363 160.607 688.363 159.74C688.363 158.98 688.556 158.307 688.943 157.72C689.329 157.133 689.869 156.68 690.563 156.36C691.269 156.04 692.076 155.88 692.983 155.88C694.289 155.88 695.356 156.207 696.183 156.86C697.023 157.513 697.496 158.38 697.603 159.46H695.603C695.536 158.927 695.256 158.46 694.763 158.06C694.269 157.647 693.616 157.44 692.803 157.44C692.043 157.44 691.423 157.64 690.943 158.04C690.463 158.427 690.223 158.973 690.223 159.68C690.223 160.187 690.363 160.6 690.643 160.92C690.936 161.24 691.289 161.487 691.703 161.66C692.129 161.82 692.723 162.007 693.483 162.22C694.403 162.473 695.143 162.727 695.703 162.98C696.263 163.22 696.743 163.6 697.143 164.12C697.543 164.627 697.743 165.32 697.743 166.2C697.743 166.88 697.563 167.52 697.203 168.12C696.843 168.72 696.309 169.207 695.603 169.58C694.896 169.953 694.063 170.14 693.103 170.14Z" fill="#1F0045"/>
</svg>
