<svg width="200" height="25" viewBox="0 0 200 25" fill="none" xmlns="http://www.w3.org/2000/svg">
<path d="M6.17041 24.5652V0.398553H0V24.5652H6.17041ZM29.2018 25C35.1569 25 38.278 21.6304 39.8206 18.5145L34.5112 15.9783C34.0597 17.0215 33.3171 17.9093 32.3743 18.5334C31.4314 19.1575 30.3291 19.4909 29.2018 19.4928C25.4708 19.4928 22.7085 16.4493 22.7085 12.5C22.7085 8.55073 25.4708 5.50725 29.2018 5.50725C30.3291 5.50915 31.4314 5.8425 32.3743 6.4666C33.3171 7.0907 34.0597 7.97854 34.5112 9.02174L39.8206 6.48551C38.2421 3.2971 35.1569 0 29.2018 0C22.0269 0 16.4305 5.03623 16.4305 12.5C16.4305 19.9275 22.0269 25 29.2018 25ZM48.4305 12.5C48.4305 19.8551 53.9193 25 61.2377 25C68.5561 25 74.009 19.8551 74.009 12.5C74.009 5.14493 68.5561 0 61.2377 0C53.9193 0 48.4305 5.14493 48.4305 12.5ZM67.7309 12.5C67.7309 16.413 65.1839 19.4928 61.2377 19.4928C57.2556 19.4928 54.7085 16.413 54.7085 12.5C54.7085 8.55073 57.2556 5.50725 61.2377 5.50725C65.1839 5.50725 67.7309 8.55073 67.7309 12.5ZM106.547 24.5652V0.398553H100.341V14.3116L90.6547 0.398553H84.3049V24.5652H90.4753V9.96377L100.592 24.5652H106.547ZM124.197 24.5652V0.398553H118.027V24.5652H124.197ZM147.229 25C153.184 25 156.305 21.6304 157.848 18.5145L152.538 15.9783C152.087 17.0215 151.344 17.9093 150.401 18.5334C149.458 19.1575 148.356 19.4909 147.229 19.4928C143.498 19.4928 140.735 16.4493 140.735 12.5C140.735 8.55073 143.498 5.50725 147.229 5.50725C148.356 5.50915 149.458 5.8425 150.401 6.4666C151.344 7.0907 152.087 7.97854 152.538 9.02174L157.848 6.48551C156.269 3.2971 153.184 0 147.229 0C140.054 0 134.457 5.03623 134.457 12.5C134.457 19.9275 140.054 25 147.229 25ZM183.462 24.5652V19.1304H173.848V0.398553H167.677V24.5652H183.462ZM200 24.5652V0.398553H193.83V24.5652H200Z" fill="#1F0045"/>
</svg>
