<svg width="56" height="50" viewBox="0 0 56 50" fill="none" xmlns="http://www.w3.org/2000/svg">
<rect width="56" height="50" rx="8" fill="#8C52FF"/>
<path d="M31.0576 15.2807C31.9001 15.8357 32.6122 16.5868 33.1395 17.477C33.6669 18.3672 33.9957 19.3729 34.101 20.4179C35.1311 20.9254 36.2886 21.0665 37.4007 20.8202C38.5127 20.5738 39.5197 19.9531 40.2714 19.0508C41.023 18.1485 41.4789 17.013 41.5711 15.8137C41.6633 14.6144 41.3868 13.4157 40.7828 12.3965C40.1789 11.3773 39.2799 10.5924 38.2201 10.1587C37.1603 9.72511 35.9965 9.66612 34.9025 9.99055C33.8084 10.315 32.8428 11.0054 32.1497 11.9589C31.4566 12.9123 31.0732 14.0775 31.0568 15.2807H31.0576ZM27.6016 26.7088C28.6433 26.7065 29.6611 26.3773 30.5263 25.7626C31.3915 25.148 32.0652 24.2756 32.4624 23.2556C32.8596 22.2356 32.9624 21.1138 32.7579 20.032C32.5533 18.9501 32.0506 17.9568 31.3132 17.1774C30.5758 16.398 29.6368 15.8676 28.6149 15.6532C27.5929 15.4388 26.5339 15.55 25.5717 15.9727C24.6094 16.3955 23.787 17.1108 23.2084 18.0283C22.6299 18.9459 22.3211 20.0245 22.3211 21.1278C22.3224 22.609 22.8791 24.029 23.8688 25.0755C24.8585 26.1221 26.2001 26.7096 27.5987 26.7088H27.6016ZM29.8415 27.09H25.358C23.5673 27.0906 21.85 27.8434 20.5826 29.1833C19.3153 30.5232 18.6016 32.3408 18.598 34.2373V40.0325L18.6116 40.1233L18.9889 40.2483C21.9602 41.2605 25.0594 41.7889 28.1804 41.8153C33.1484 41.8153 36.0284 40.3177 36.2063 40.2224L36.5591 40.034H36.5965V34.2388C36.5942 32.3418 35.8812 30.5234 34.614 29.1828C33.3468 27.8421 31.629 27.0889 29.8379 27.0885L29.8415 27.09ZM38.5765 21.3283H34.1276C34.0822 23.1436 33.3603 24.866 32.1196 26.1193C33.7743 26.6396 35.2264 27.7113 36.2601 29.1754C37.2938 30.6394 37.8539 32.4176 37.8572 34.2457V36.0307C40.2947 36.0122 42.7039 35.4757 44.942 34.4531L45.2948 34.2639H45.333V28.4687C45.3282 26.5731 44.614 24.7568 43.3468 23.418C42.0796 22.0792 40.3628 21.3272 38.5729 21.3268L38.5765 21.3283ZM18.3373 20.9471C19.3315 20.9471 20.3052 20.6483 21.1453 20.0854C21.4013 18.3382 22.2803 16.7615 23.6012 15.6802C23.6063 15.5758 23.6164 15.4721 23.6164 15.3668C23.6184 14.2608 23.3106 13.179 22.7319 12.2583C22.1532 11.3375 21.3297 10.6193 20.3655 10.1944C19.4013 9.76942 18.3398 9.65691 17.3152 9.87106C16.2906 10.0852 15.3491 10.6164 14.6096 11.3974C13.8701 12.1784 13.366 13.1742 13.161 14.2587C12.956 15.3432 13.0593 16.4678 13.4579 17.4901C13.8565 18.5124 14.5325 19.3865 15.4003 20.0018C16.268 20.6172 17.2887 20.9461 18.333 20.9471H18.3373ZM23.0792 26.1178C21.8442 24.8711 21.1221 23.1596 21.069 21.3535C20.9041 21.3405 20.7407 21.3268 20.5729 21.3268H16.0931C14.3026 21.3272 12.5853 22.0797 11.318 23.4193C10.0507 24.7589 9.33682 26.5762 9.33301 28.4725V34.2678L9.34669 34.357L9.72397 34.4828C12.194 35.3135 14.7508 35.8208 17.3372 35.9934V34.2441C17.3408 32.416 17.9012 30.6379 18.935 29.1739C19.9688 27.7099 21.4209 26.6381 23.0756 26.1178H23.0792Z" fill="white"/>
</svg>
